<svg viewBox="45.12 21.31 69.76 118.57" fill="none" xmlns="http://www.w3.org/2000/svg">
<path d="M104.966 115.702C104.966 109.3 104.966 102.682 104.966 96.2795C104.966 92.8656 104.966 89.2374 104.966 85.8236C104.966 82.6205 105.18 79.4192 104.538 76.2179C102.404 63.6269 91.3075 54.6641 78.7149 54.4498H66.5499V59.7854C75.5136 59.7854 84.9049 58.5048 92.1604 64.9075C98.1353 70.243 99.4175 77.0733 99.6301 84.7565C99.6301 90.7314 99.6301 96.7072 99.6301 102.897C99.6301 109.725 99.6301 116.342 99.6301 123.172V130C101.337 130 103.258 130 104.966 130V123.172C104.966 120.823 104.966 118.262 104.966 115.702Z" fill="#1098D4"/>
<path d="M82.7707 101.402C70.1781 101.615 61.0018 92.011 60.7884 79.6335C60.5742 70.8824 60.7884 62.3455 60.7884 53.597C60.7884 47.8338 60.7884 42.2848 60.7884 36.5233V31.1878H55.2386V36.5233C55.2386 44.6325 55.2386 52.9559 55.2386 61.0667C55.2386 74.0837 52.891 89.0249 62.9226 99.2682C68.0439 104.389 75.0868 106.951 82.1288 106.951H93.8669V101.402H82.7707Z" fill="#1098D4"/>
</svg>
