<?xml version="1.0" encoding="utf-8"?>
<!-- Generator: Adobe Illustrator 28.1.0, SVG Export Plug-In . SVG Version: 6.00 Build 0)  -->
<svg version="1.1" id="Layer_1" xmlns="http://www.w3.org/2000/svg" xmlns:xlink="http://www.w3.org/1999/xlink" x="0px" y="0px"
	 viewBox="142.98 251.50 309.32 92.29"  xml:space="preserve">
<style type="text/css">
	.st0{fill:#1098D4;}
</style>
<g>
	<path class="st0" d="M193.2236633,278.9363708c2.300293,2.300293,4.1000977,5.0004883,5.5004883,8.2006836
		c1.2998047,3.2001953,2,6.6005859,2,10.5004883c0,4.0004883-0.7001953,7.4003906-2,10.6005859
		c-1.2001953,3.0004883-3.2001953,5.9003906-5.5004883,8.2006836s-5.2001953,4.300293-8.4003906,5.5004883
		c-3.2001953,1.2998047-6.9003906,2-10.5004883,2c-3.800293,0-7.3007812-0.7001953-10.5009766-2
		c-3.2001953-1.4003906-6.1000977-3.2001953-8.4003906-5.5004883s-4.300293-5.0004883-5.5004883-8.2006836
		c-1.2998047-3.1000977-2-6.6000977-2-10.6005859v-1.699707v-39.5024414h9.6005859v41.1020508
		c0,2.6005859,0.6000977,5.3007812,2.2001953,8.5009766c0.8999023,2.3999023,2.1000977,4.1000977,3.7001953,5.6000977
		c1.3999023,1.3999023,3.2001953,2.5,5.2001953,3.2001953c3.7001953,1.2001953,8.0004883,1.2001953,11.7006836,0
		c1.800293-0.7001953,3.6005859-1.800293,5.2001953-3.2001953c1.6005859-1.5,2.9003906-3.4003906,3.800293-5.6000977
		c0.9003906-2.300293,1.4003906-5.0004883,1.4003906-8.0004883c0-3.2001953-0.5-5.9003906-1.4003906-8.2006836
		c-1.1000977-2.5-3.800293-5.2001953-5.6000977-6.300293c-4.6005859-2.800293-7.8007812-2.7001953-12.4008789-2.7001953h-3.300293
		v-8.9008789h0.6000977c4.4003906,0,10.3007812,0.2001953,14.8007812,1.300293
		C187.1235657,274.1360779,190.9233704,276.7366638,193.2236633,278.9363708z"/>
	<path class="st0" d="M226.7202454,271.6360779v52.1030273h-10.2006836v-52.1030273H226.7202454z"/>
	<path class="st0" d="M278.8213196,273.7361755c3.2001953,1.2001953,6.0004883,2.9003906,8.3007812,5.2001953
		c2.2001953,2.300293,4.1000977,4.9003906,5.4003906,8.2006836c1.3999023,3.2001953,1.8999023,6.7001953,1.8999023,10.4003906
		c0,3.6005859-0.7001953,7.1005859-1.8999023,10.3007812c-1.4003906,3.1000977-3.2001953,5.800293-5.4003906,8.2006836
		c-2.300293,2.300293-5.1005859,4-8.3007812,5.4003906c-3.1000977,1.2998047-6.6000977,2-10.300293,2
		c-3.6005859,0-7.1005859-0.7001953-10.3007812-2c-3.1000977-1.2001953-5.9003906-3.1000977-8.2006836-5.4003906
		c-2.2001953-2.300293-4.2001953-5.1005859-5.4003906-8.2006836c-1.3999023-3.2001953-1.8999023-6.5004883-1.8999023-10.3007812
		c0-3.7001953,0.7001953-7.2001953,1.8999023-10.4003906c1.4003906-3.1000977,3.2001953-5.9003906,5.4003906-8.2006836
		c2.300293-2.2998047,5.1005859-4,8.2006836-5.2001953c3.2001953-1.2998047,6.7001953-2,10.3007812-2
		C272.2212219,271.7361755,275.7212219,272.4363708,278.8213196,273.7361755z M274.3213196,313.9388123
		c1.8999023-0.800293,3.5-1.800293,5.1000977-3.2001953c1.5-1.4003906,2.800293-3.1000977,3.6000977-5.4003906
		c0.9003906-2.1000977,1.4003906-4.9003906,1.4003906-7.9003906c0-3.1005859-0.5-5.9003906-1.4003906-8.0004883
		c-0.7998047-2.300293-2.1000977-4.1005859-3.6000977-5.5004883c-1.6000977-1.3999023-3.300293-2.4003906-5.300293-3.1000977
		c-1.8999023-0.7001953-3.800293-1.1000977-5.7001953-1.1000977c-1.9003906,0-3.9003906,0.3999023-5.800293,1.1000977
		c-1.9003906,0.699707-3.7001953,1.7001953-5.2006836,3.1000977c-1.6000977,1.3999023-2.7998047,3.2001953-3.7001953,5.5004883
		c-0.8999023,2.2001953-1.3999023,4.8999023-1.3999023,8.0004883c0,3.2001953,0.5,5.800293,1.3999023,7.9003906
		c0.9003906,2.1000977,2.1000977,4,3.7001953,5.4003906c1.5004883,1.3999023,3.1005859,2.3999023,5.0004883,3.2001953
		c2.1000977,0.699707,4.2001953,1,6.1005859,1C270.5210266,314.9388123,272.420929,314.6385193,274.3213196,313.9388123z"/>
	<path class="st0" d="M347.8198547,277.9363708c2.5009766,2.6000977,4.0009766,5.1005859,4.3007812,7.6005859
		c0.4003906,2.800293,0.7001953,5.7001953,0.7001953,8.800293v29.4018555H343.02005v-29.1015625
		c0-1.6000977-0.0996094-3.4003906-0.2998047-5.0004883c-0.2001953-2.1000977-0.9003906-3.7001953-2.2001953-5.300293
		c-0.9003906-1.2998047-2.2001953-2.2001953-3.6005859-2.8999023c-1.5-0.800293-3.2998047-1.1000977-5.2998047-1.1000977
		s-3.8007812,0.2998047-5.2011719,1.1000977c-1.5,0.699707-2.7998047,1.6000977-3.7001953,2.8999023
		c-1.1992188,1.6000977-2,3.4003906-2.0996094,5.300293c-0.2001953,1.800293-0.4003906,3.4003906-0.4003906,5.0004883v29.1015625
		h-9.7998047v-29.2016602c0-3.1000977,0.1992188-6.0004883,0.6992188-8.800293
		c0.6005859-2.7001953,2.2001953-5.2006836,4.6005859-7.8007812c1.2001953-1.3999023,2.7001953-2.5,4.1005859-3.300293
		c1.7001953-0.699707,3.0996094-1.3999023,4.5996094-1.7998047c1.4003906-0.5,2.9003906-0.7001953,4.1005859-0.9003906
		c1.5-0.199707,2.6005859-0.199707,3.5-0.199707c0.9003906,0,1.8007812,0,3.1005859,0.199707
		c1.2001953,0.2001953,2.7001953,0.6000977,4.0996094,0.9003906c1.5009766,0.3999023,2.9003906,0.8999023,4.4003906,1.7998047
		C345.02005,275.6365662,346.52005,276.6365662,347.8198547,277.9363708z"/>
	<path class="st0" d="M378.8188782,271.6360779v52.1030273h-10.2001953v-52.1030273H378.8188782z"/>
	<path class="st0" d="M445.52005,287.6370544c1.3007812,3.2001953,2.0009766,6.800293,1.8007812,10.3007812v40.9023438h-9.6005859
		v-40.9023438c0-2.5004883-0.7001953-5.1005859-1.9003906-8.2006836c-0.9003906-2.300293-2.2001953-4.1000977-3.7998047-5.5004883
		c-1.4003906-1.3999023-3.2001953-2.5-5.1005859-3.2001953c-3.7001953-1.199707-8.0009766-1.199707-11.7011719,0
		c-1.7998047,0.7001953-3.5,1.800293-5.0996094,3.2001953c-1.6005859,1.4003906-2.9003906,3.4003906-3.8007812,5.5004883
		c-0.8994141,2.300293-1.3994141,5.0004883-1.3994141,8.0004883c0,3.2001953,0.5,5.9003906,1.3994141,8.2006836
		c1.1005859,2.5,3.8007812,5.2001953,5.5009766,6.2001953c4.5996094,2.9003906,7.7998047,2.7001953,12.4003906,2.7001953h3.2001953
		v8.9003906h-0.5c-4.6005859,0-10.3007812-0.199707-14.7011719-1.2998047c-3.7001953-0.8999023-7.5-3.5004883-9.8007812-5.7006836
		c-2.2998047-2.2998047-4.2001953-4.8999023-5.5-8.1000977c-1.2001953-3.2001953-1.9003906-6.6005859-1.9003906-10.5009766
		c0-3.8999023,0.7001953-7.300293,1.9003906-10.5004883c1.2998047-3,3.2001953-5.9003906,5.5-8.2006836
		c2.3007812-2.2998047,5.2001953-4.2001953,8.4013672-5.5c6.5-2.6000977,14.5-2.6000977,20.9003906,0
		c3.2001953,1.3999023,6.0009766,3.2001953,8.3007812,5.5C442.3198547,281.7366638,444.3208313,284.4368591,445.52005,287.6370544z"
		/>
</g>
</svg>
